<svg xmlns="http://www.w3.org/2000/svg" xmlns:xlink="http://www.w3.org/1999/xlink" viewBox="0 0 68 75" version="1.1" x="0px" y="0px"><title>chinese, rice, farmer, hat, agriculture</title><desc>Created with Sketch.</desc><g stroke="none" stroke-width="1" fill="none" fill-rule="evenodd"><g transform="translate(-176.000000, -180.000000)" fill="#000000" fill-rule="nonzero"><path d="M212,234 C213.104569,234 214,234.895431 214,236 C214,237.104569 213.104569,238 212,238 C212,239.104569 211.104569,240 210,240 C208.895431,240 208,239.104569 208,238 C206.895431,238 206,237.104569 206,236 C206,234.895431 206.895431,234 208,234 L208,231.910314 C197.445724,230.959217 189.040783,222.554276 188.089686,212 L178,212 C176.15327,212 175.293185,209.710927 176.682991,208.494847 L208.682991,180.494847 C209.437043,179.835051 210.562957,179.835051 211.317009,180.494847 L243.317009,208.494847 C244.706815,209.710927 243.84673,212 242,212 L231.910314,212 C230.959217,222.554276 222.554276,230.959217 212,231.910314 L212,234 Z M210,184.657536 L183.322899,208 L236.677101,208 L210,184.657536 Z M210,228 C219.265107,228 226.895254,220.999901 227.890142,212 L192.109858,212 C193.104746,220.999901 200.734893,228 210,228 Z"/></g></g><text x="0" y="75" fill="#000000" font-size="5px" font-weight="bold" font-family="'Helvetica Neue', Helvetica, Arial-Unicode, Arial, Sans-serif">Created by Andrejs Kirma</text><text x="0" y="80" fill="#000000" font-size="5px" font-weight="bold" font-family="'Helvetica Neue', Helvetica, Arial-Unicode, Arial, Sans-serif">from the Noun Project</text></svg>