<?xml version="1.0" encoding="iso-8859-1"?>
<!-- Generator: Adobe Illustrator 19.0.0, SVG Export Plug-In . SVG Version: 6.00 Build 0)  -->
<svg version="1.1" id="Layer_1" xmlns="http://www.w3.org/2000/svg" xmlns:xlink="http://www.w3.org/1999/xlink" x="0px" y="0px"
	 viewBox="0 0 511.999 511.999" style="enable-background:new 0 0 511.999 511.999;" xml:space="preserve">
<circle style="fill:#B4826E;" cx="255.999" cy="375.715" r="17.102"/>
<path style="fill:#FFCF65;" d="M502.259,231.363L266.113,58.189c-3.01-2.207-6.562-3.311-10.114-3.311v184.019h243.793
	C503.824,238.897,505.511,233.746,502.259,231.363z"/>
<path style="fill:#FFB450;" d="M9.73,231.363L245.876,58.189c3.01-2.207,6.562-3.311,10.114-3.311v184.019H12.196
	C8.165,238.897,6.478,233.746,9.73,231.363z"/>
<path style="fill:#FFCF65;" d="M266.113,58.189c-6.02-4.415-14.208-4.415-20.228,0l-2.029,1.489L119.181,238.897h273.636
	L268.143,59.677L266.113,58.189z"/>
<path style="fill:#FFDC78;" d="M268.143,59.677l-2.029-1.489c-3.01-2.207-6.562-3.311-10.114-3.311v184.02h136.818L268.143,59.677z"
	/>
<path d="M508.827,232.511L260.845,44.386c-2.865-2.173-6.826-2.173-9.689,0L3.172,232.511c-2.743,2.08-3.851,5.68-2.753,8.942
	c1.098,3.263,4.156,5.461,7.598,5.461h60.687c2.388,33.748,19.795,65.617,49.645,90.474c29.941,24.933,70.032,40.837,113.48,45.146
	c2.252,7.973,8.348,14.345,16.154,16.981v61.711c0,4.427,3.589,8.017,8.017,8.017s8.017-3.589,8.017-8.017v-61.711
	c7.806-2.637,13.901-9.008,16.154-16.981c43.448-4.309,83.539-20.214,113.48-45.146c29.85-24.857,47.258-56.726,49.645-90.474
	h60.687c3.443,0,6.501-2.198,7.598-5.461C512.679,238.191,511.57,234.591,508.827,232.511z M134.924,230.881L247.983,75.425v155.455
	H134.924z M264.016,75.425l113.059,155.455H264.016V75.425z M217.562,89.994L115.099,230.881H31.849L217.562,89.994z
	 M255.999,384.801c-5.01,0-9.086-4.076-9.086-9.086s4.076-9.086,9.086-9.086s9.086,4.076,9.086,9.086
	S261.009,384.801,255.999,384.801z M383.391,325.067c-27.321,22.751-64.048,37.335-104.03,41.437
	c-3.682-9.305-12.763-15.907-23.362-15.907s-19.679,6.603-23.362,15.907c-39.982-4.101-76.708-18.685-104.03-41.437
	c-26.082-21.719-41.424-49.214-43.825-78.153h308.031c0.003,0,0.006,0,0.009,0c0.002,0,0.004,0,0.006,0h34.384
	C424.815,275.853,409.473,303.348,383.391,325.067z M396.9,230.881L294.438,89.995l185.713,140.885H396.9z"/>
<g>
</g>
<g>
</g>
<g>
</g>
<g>
</g>
<g>
</g>
<g>
</g>
<g>
</g>
<g>
</g>
<g>
</g>
<g>
</g>
<g>
</g>
<g>
</g>
<g>
</g>
<g>
</g>
<g>
</g>
</svg>
