<?xml version="1.0"?>
<svg version="1.1" xmlns="http://www.w3.org/2000/svg" width="200" height="100" style="border: dashed 2px #aaa"><path fill="#eb8510" d="M29.304,51.6c0,0.192-0.096,0.352-0.32,0.48l-6.784,4.352l6.688,4.288c0.256,0.16,0.384,0.352,0.384,0.544c0,0.128-0.032,0.224-0.128,0.384l-1.248,1.984c-0.16,0.256-0.352,0.416-0.544,0.416c-0.16,0-0.352-0.096-0.576-0.256l-9.024-6.016c-0.288-0.192-0.448-0.416-0.448-0.864l0-0.832c0-0.416,0.224-0.672,0.544-0.864l9.28-5.984c0.192-0.128,0.384-0.192,0.512-0.192c0.16,0,0.288,0.096,0.416,0.32l1.12,1.888c0.064,0.128,0.128,0.224,0.128,0.352z M44.68,59.92c0,2.912-0.608,5.12-2.24,6.4c-1.056,0.832-2.592,1.28-4.672,1.28c-0.576,0-1.6-0.096-2.304-0.224c-0.384-0.064-0.512-0.256-0.512-0.512c0-0.096,0-0.192,0.032-0.32l0.32-1.792c0.064-0.288,0.16-0.512,0.544-0.512c0.064,0,0.128,0.032,0.224,0.032c0.576,0.096,1.216,0.192,1.696,0.192c0.832,0,1.696-0.288,2.144-0.864c0.448-0.608,0.672-1.6,0.672-2.976l0-12.8l-3.616,0c-0.512,0-0.672-0.32-0.672-0.704l0-1.312c0-0.448,0.224-0.672,0.672-0.672l6.944,0c0.48,0,0.768,0.288,0.768,0.736l0,14.048z M66.04,66.672c0,0.384-0.256,0.608-0.64,0.608l-1.536,0c-1.664,0-2.4-0.8-2.624-1.888l-0.064,0c-0.8,1.184-2.88,2.272-4.64,2.272c-4.512,0-6.56-3.712-6.56-7.872c0-5.536,3.328-8.448,6.912-8.448c1.696,0,3.296,0.768,4.096,1.856l0.064-0.864c0.032-0.352,0.288-0.576,0.672-0.576l2.24,0c0.416,0,0.672,0.224,0.672,0.704l0,11.104c0,0.448,0.064,0.768,0.192,0.928c0.096,0.096,0.224,0.128,0.384,0.128l0.256,0c0.384,0,0.576,0.128,0.576,0.544l0,1.504z M60.76,62.32l0-6.176c-0.64-0.928-1.952-1.632-3.168-1.632c-1.952,0-3.616,1.664-3.616,5.024c0,2.688,1.024,4.96,3.392,4.96c1.568,0,2.912-1.184,3.392-2.176z M84.744,52.208c0,0.096-0.032,0.192-0.064,0.32l-6.304,16.576c-1.44,3.808-3.232,5.152-7.072,5.152c-0.608,0-1.152-0.032-1.696-0.16c-0.352-0.064-0.48-0.256-0.48-0.544c0-0.096,0.032-0.16,0.032-0.288l0.224-1.664c0.064-0.416,0.224-0.576,0.576-0.576l0.192,0c0.384,0.032,0.768,0.096,1.088,0.096c1.984,0,2.816-0.704,3.456-2.208l0.608-1.44l-5.824-15.008c-0.032-0.096-0.064-0.16-0.064-0.256c0-0.256,0.192-0.448,0.48-0.448l3.072,0c0.448,0,0.672,0.224,0.8,0.544l3.552,10.592l3.36-10.4c0.16-0.512,0.416-0.736,0.96-0.736l2.592,0c0.32,0,0.512,0.192,0.512,0.448z M97.592,45.04c0,0.128-0.064,0.32-0.128,0.544l-6.624,21.44c-0.16,0.512-0.32,0.64-0.864,0.64l-2.272,0c-0.32,0-0.48-0.096-0.48-0.352c0-0.096,0.032-0.256,0.096-0.416l6.688-21.472c0.192-0.576,0.352-0.704,0.96-0.704l2.08,0c0.352,0,0.544,0.064,0.544,0.32z M113.608,56.944c0,0.416-0.256,0.672-0.576,0.864l-9.248,5.984c-0.224,0.128-0.384,0.224-0.512,0.224c-0.16,0-0.32-0.096-0.448-0.32l-1.088-1.888c-0.064-0.128-0.128-0.256-0.128-0.384c0-0.16,0.096-0.352,0.32-0.48l6.752-4.32l-6.656-4.32c-0.256-0.16-0.384-0.32-0.384-0.512c0-0.128,0.032-0.256,0.128-0.384l1.216-2.016c0.16-0.288,0.352-0.416,0.544-0.416c0.16,0,0.352,0.064,0.576,0.224l9.024,6.08c0.288,0.192,0.48,0.384,0.48,0.832l0,0.832z"/><path fill="#" d=""/></svg>
