<svg xmlns:xlink="http://www.w3.org/1999/xlink" xmlns="http://www.w3.org/2000/svg" aria-hidden="true" focusable="false" width="256"  preserveAspectRatio="xMidYMid meet" viewBox="0 0 256 317" style="transform: rotate(360deg);" height="317" ><defs><linearGradient x1="16.107%" y1="58.187%" x2="72.709%" y2="72.89%" id="IconifyId-174e8940ef1-cc0390-12"><stop stop-color="#FFD441" offset="0%"></stop><stop stop-color="#FFB047" offset="100%"></stop></linearGradient><linearGradient x1="70.213%" y1="65.797%" x2="100%" y2="0%" id="IconifyId-174e8940ef1-cc0390-13"><stop stop-color="#FFD754" offset="0%"></stop><stop stop-color="#FFB532" offset="100%"></stop></linearGradient><linearGradient x1="22.178%" y1="66.138%" x2="22.178%" y2="9.316%" id="IconifyId-174e8940ef1-cc0390-14"><stop stop-color="#FFD642" offset="0%"></stop><stop stop-color="#FFD441" offset="0%"></stop><stop stop-color="#FFB532" offset="100%"></stop></linearGradient><linearGradient x1="88.953%" y1="24.298%" x2="12.579%" y2="6.966%" id="IconifyId-174e8940ef1-cc0390-15"><stop stop-color="#FFD441" offset="0%"></stop><stop stop-color="#FFA829" offset="100%"></stop></linearGradient><linearGradient x1="16.107%" y1="58.187%" x2="72.709%" y2="72.89%" id="IconifyId-174e8940ef1-cc0390-12"><stop stop-color="#FFD441" offset="0%"></stop><stop stop-color="#FFB047" offset="100%"></stop></linearGradient><linearGradient x1="70.213%" y1="65.797%" x2="100%" y2="0%" id="IconifyId-174e8940ef1-cc0390-13"><stop stop-color="#FFD754" offset="0%"></stop><stop stop-color="#FFB532" offset="100%"></stop></linearGradient><linearGradient x1="22.178%" y1="66.138%" x2="22.178%" y2="9.316%" id="IconifyId-174e8940ef1-cc0390-14"><stop stop-color="#FFD642" offset="0%"></stop><stop stop-color="#FFD441" offset="0%"></stop><stop stop-color="#FFB532" offset="100%"></stop></linearGradient><linearGradient x1="88.953%" y1="24.298%" x2="12.579%" y2="6.966%" id="IconifyId-174e8940ef1-cc0390-15"><stop stop-color="#FFD441" offset="0%"></stop><stop stop-color="#FFA829" offset="100%"></stop></linearGradient></defs><path d="M211.69 309.979V228.12h-81.201l81.2 81.858" fill-opacity="0.7" fill="#FFDF51"></path><path d="M220.801 263.566v-88.533H132.98l87.822 88.533" fill-opacity="0.7" fill="#FF8900"></path><path d="M167.467 228.118v88.534h87.822l-87.822-88.534" fill-opacity="0.7" fill="url(&quot;#IconifyId-174e8940ef1-cc0390-12&quot;)"></path><path d="M202.444 180.962v-70.027h-69.467l69.467 70.027" fill-opacity="0.7" fill="#FFDF4F"></path><path d="M235.424 164.267V75.733h-87.822l87.822 88.534" fill-opacity="0.8" fill="url(&quot;#IconifyId-174e8940ef1-cc0390-13&quot;)"></path><path d="M85.735 0v88.533h87.822L85.735 0" fill-opacity="0.8" fill="url(&quot;#IconifyId-174e8940ef1-cc0390-14&quot;)"></path><path d="M106.334 138.667V50.133H.135l87.443 88.552l18.756-.018" fill-opacity="0.88" fill="url(&quot;#IconifyId-174e8940ef1-cc0390-15&quot;)"></path><path d="M106.334 316.175V209.067H.135l106.199 107.108" fill-opacity="0.7" fill="#FFB700"></path><path d="M106.357 227.467v-88.534H18.535l87.822 88.534" fill-opacity="0.5" fill="#FFB700"></path><path d="M132.976 110.933v88.534h87.823l-87.823-88.534" fill-opacity="0.7" fill="#FFCD25"></path><path d="M106.135 120.9V32.365H18.313l87.822 88.533" fill-opacity="0.7" fill="#FF8900"></path><path d="M130.489 228.118v88.534h87.822l-87.822-88.534" fill-opacity="0.7" fill="#FF8900"></path></svg>